<svg width="400" height="400" xmlns="http://www.w3.org/2000/svg">
<g class="record">
<defs>
</defs>
<g id="slice-container">
<g class="slice-component" data-slice="0" transform="rotate(0.0 200 200)">
<path d="M 273.91036260090294,169.3853254107928 A 80.0,80.0 0 0,1 273.91036260090294,230.6146745892072 L 241.5745789630079,217.22075445642903 A 45.0,45.0 0 0,0 241.5745789630079,182.77924554357097 Z" fill="#4CAF50" stroke="#888" stroke-width="0.5"/>
<path d="M 306.24614623879796,155.99140527801467 A 114.99999999999999,114.99999999999999 0 0,1 306.24614623879796,244.00859472198533 L 273.91036260090294,230.6146745892072 A 80.0,80.0 0 0,0 273.91036260090294,169.3853254107928 Z" fill="#E3F2FD" stroke="#888" stroke-width="0.5"/>
<path d="M 338.581929876693,142.59748514523653 A 149.99999999999997,149.99999999999997 0 0,1 338.581929876693,257.40251485476347 L 306.24614623879796,244.00859472198533 A 114.99999999999999,114.99999999999999 0 0,0 306.24614623879796,155.99140527801467 Z" fill="#E91E63" stroke="#888" stroke-width="0.5"/>
<path id="slice-0-arc-0" d="M 264.67156727579004,173.21215973444373 A 70.0,70.0 0 0,1 264.67156727579004,226.78784026555627" fill="none"/>
<text font-size="8" fill="green"><textPath href="#slice-0-arc-0" startOffset="50%" text-anchor="middle">Option A+</textPath></text>
<path id="slice-0-arc-1" d="M 297.00735091368506,159.8182396016656 A 104.99999999999999,104.99999999999999 0 0,1 297.00735091368506,240.1817603983344" fill="none"/>
<text font-size="10" fill="black"><textPath href="#slice-0-arc-1" startOffset="50%" text-anchor="middle">Option A</textPath></text>
<path id="slice-0-arc-2" d="M 329.3431345515801,146.42431946888743 A 139.99999999999997,139.99999999999997 0 0,1 329.3431345515801,253.57568053111257" fill="none"/>
<text font-size="14" fill="red"><textPath href="#slice-0-arc-2" startOffset="50%" text-anchor="middle">Option A-</textPath></text>
<line x1="200" y1="200" x2="338.58192987669304" y2="142.59748514523653" stroke="#888" stroke-width="1"/>
<line x1="200" y1="200" x2="338.58192987669304" y2="257.40251485476347" stroke="#888" stroke-width="1"/>
<path class="clickable-slice" data-slice="0" d="M 200,200 L 338.58192987669304,142.59748514523653 A 150,150 0 0,1 338.58192987669304,257.40251485476347 Z" fill="transparent" stroke="transparent"/>
</g>
<g class="slice-component" data-slice="1" transform="rotate(45.0 200 200)">
<path d="M 273.91036260090294,169.3853254107928 A 80.0,80.0 0 0,1 273.91036260090294,230.6146745892072 L 241.5745789630079,217.22075445642903 A 45.0,45.0 0 0,0 241.5745789630079,182.77924554357097 Z" fill="#4CAF50" stroke="#888" stroke-width="0.5"/>
<path d="M 306.24614623879796,155.99140527801467 A 114.99999999999999,114.99999999999999 0 0,1 306.24614623879796,244.00859472198533 L 273.91036260090294,230.6146745892072 A 80.0,80.0 0 0,0 273.91036260090294,169.3853254107928 Z" fill="#E3F2FD" stroke="#888" stroke-width="0.5"/>
<path d="M 338.581929876693,142.59748514523653 A 149.99999999999997,149.99999999999997 0 0,1 338.581929876693,257.40251485476347 L 306.24614623879796,244.00859472198533 A 114.99999999999999,114.99999999999999 0 0,0 306.24614623879796,155.99140527801467 Z" fill="#E91E63" stroke="#888" stroke-width="0.5"/>
<path id="slice-1-arc-0" d="M 264.67156727579004,173.21215973444373 A 70.0,70.0 0 0,1 264.67156727579004,226.78784026555627" fill="none"/>
<text font-size="8" fill="green"><textPath href="#slice-1-arc-0" startOffset="50%" text-anchor="middle">Option B+</textPath></text>
<path id="slice-1-arc-1" d="M 297.00735091368506,159.8182396016656 A 104.99999999999999,104.99999999999999 0 0,1 297.00735091368506,240.1817603983344" fill="none"/>
<text font-size="10" fill="black"><textPath href="#slice-1-arc-1" startOffset="50%" text-anchor="middle">Option B</textPath></text>
<path id="slice-1-arc-2" d="M 329.3431345515801,146.42431946888743 A 139.99999999999997,139.99999999999997 0 0,1 329.3431345515801,253.57568053111257" fill="none"/>
<text font-size="14" fill="red"><textPath href="#slice-1-arc-2" startOffset="50%" text-anchor="middle">Option B-</textPath></text>
<line x1="200" y1="200" x2="338.58192987669304" y2="142.59748514523653" stroke="#888" stroke-width="1"/>
<line x1="200" y1="200" x2="338.58192987669304" y2="257.40251485476347" stroke="#888" stroke-width="1"/>
<path class="clickable-slice" data-slice="1" d="M 200,200 L 338.58192987669304,142.59748514523653 A 150,150 0 0,1 338.58192987669304,257.40251485476347 Z" fill="transparent" stroke="transparent"/>
</g>
<g class="slice-component" data-slice="2" transform="rotate(90.0 200 200)">
<path d="M 273.91036260090294,169.3853254107928 A 80.0,80.0 0 0,1 273.91036260090294,230.6146745892072 L 241.5745789630079,217.22075445642903 A 45.0,45.0 0 0,0 241.5745789630079,182.77924554357097 Z" fill="#4CAF50" stroke="#888" stroke-width="0.5"/>
<path d="M 306.24614623879796,155.99140527801467 A 114.99999999999999,114.99999999999999 0 0,1 306.24614623879796,244.00859472198533 L 273.91036260090294,230.6146745892072 A 80.0,80.0 0 0,0 273.91036260090294,169.3853254107928 Z" fill="#E3F2FD" stroke="#888" stroke-width="0.5"/>
<path d="M 338.581929876693,142.59748514523653 A 149.99999999999997,149.99999999999997 0 0,1 338.581929876693,257.40251485476347 L 306.24614623879796,244.00859472198533 A 114.99999999999999,114.99999999999999 0 0,0 306.24614623879796,155.99140527801467 Z" fill="#E91E63" stroke="#888" stroke-width="0.5"/>
<path id="slice-2-arc-0" d="M 264.67156727579004,173.21215973444373 A 70.0,70.0 0 0,1 264.67156727579004,226.78784026555627" fill="none"/>
<text font-size="8" fill="green"><textPath href="#slice-2-arc-0" startOffset="50%" text-anchor="middle">Option C+</textPath></text>
<path id="slice-2-arc-1" d="M 297.00735091368506,159.8182396016656 A 104.99999999999999,104.99999999999999 0 0,1 297.00735091368506,240.1817603983344" fill="none"/>
<text font-size="10" fill="black"><textPath href="#slice-2-arc-1" startOffset="50%" text-anchor="middle">Option C</textPath></text>
<path id="slice-2-arc-2" d="M 329.3431345515801,146.42431946888743 A 139.99999999999997,139.99999999999997 0 0,1 329.3431345515801,253.57568053111257" fill="none"/>
<text font-size="14" fill="red"><textPath href="#slice-2-arc-2" startOffset="50%" text-anchor="middle">Option C-</textPath></text>
<line x1="200" y1="200" x2="338.58192987669304" y2="142.59748514523653" stroke="#888" stroke-width="1"/>
<line x1="200" y1="200" x2="338.58192987669304" y2="257.40251485476347" stroke="#888" stroke-width="1"/>
<path class="clickable-slice" data-slice="2" d="M 200,200 L 338.58192987669304,142.59748514523653 A 150,150 0 0,1 338.58192987669304,257.40251485476347 Z" fill="transparent" stroke="transparent"/>
</g>
<g class="slice-component" data-slice="3" transform="rotate(135.0 200 200)">
<path d="M 273.91036260090294,169.3853254107928 A 80.0,80.0 0 0,1 273.91036260090294,230.6146745892072 L 241.5745789630079,217.22075445642903 A 45.0,45.0 0 0,0 241.5745789630079,182.77924554357097 Z" fill="#4CAF50" stroke="#888" stroke-width="0.5"/>
<path d="M 306.24614623879796,155.99140527801467 A 114.99999999999999,114.99999999999999 0 0,1 306.24614623879796,244.00859472198533 L 273.91036260090294,230.6146745892072 A 80.0,80.0 0 0,0 273.91036260090294,169.3853254107928 Z" fill="#E3F2FD" stroke="#888" stroke-width="0.5"/>
<path d="M 338.581929876693,142.59748514523653 A 149.99999999999997,149.99999999999997 0 0,1 338.581929876693,257.40251485476347 L 306.24614623879796,244.00859472198533 A 114.99999999999999,114.99999999999999 0 0,0 306.24614623879796,155.99140527801467 Z" fill="#E91E63" stroke="#888" stroke-width="0.5"/>
<path id="slice-3-arc-0" d="M 264.67156727579004,173.21215973444373 A 70.0,70.0 0 0,1 264.67156727579004,226.78784026555627" fill="none"/>
<text font-size="8" fill="green"><textPath href="#slice-3-arc-0" startOffset="50%" text-anchor="middle">Option D+</textPath></text>
<path id="slice-3-arc-1" d="M 297.00735091368506,159.8182396016656 A 104.99999999999999,104.99999999999999 0 0,1 297.00735091368506,240.1817603983344" fill="none"/>
<text font-size="10" fill="black"><textPath href="#slice-3-arc-1" startOffset="50%" text-anchor="middle">Option D</textPath></text>
<path id="slice-3-arc-2" d="M 329.3431345515801,146.42431946888743 A 139.99999999999997,139.99999999999997 0 0,1 329.3431345515801,253.57568053111257" fill="none"/>
<text font-size="14" fill="red"><textPath href="#slice-3-arc-2" startOffset="50%" text-anchor="middle">Option D-</textPath></text>
<line x1="200" y1="200" x2="338.58192987669304" y2="142.59748514523653" stroke="#888" stroke-width="1"/>
<line x1="200" y1="200" x2="338.58192987669304" y2="257.40251485476347" stroke="#888" stroke-width="1"/>
<path class="clickable-slice" data-slice="3" d="M 200,200 L 338.58192987669304,142.59748514523653 A 150,150 0 0,1 338.58192987669304,257.40251485476347 Z" fill="transparent" stroke="transparent"/>
</g>
<g class="slice-component" data-slice="4" transform="rotate(180.0 200 200)">
<path d="M 273.91036260090294,169.3853254107928 A 80.0,80.0 0 0,1 273.91036260090294,230.6146745892072 L 241.5745789630079,217.22075445642903 A 45.0,45.0 0 0,0 241.5745789630079,182.77924554357097 Z" fill="#4CAF50" stroke="#888" stroke-width="0.5"/>
<path d="M 306.24614623879796,155.99140527801467 A 114.99999999999999,114.99999999999999 0 0,1 306.24614623879796,244.00859472198533 L 273.91036260090294,230.6146745892072 A 80.0,80.0 0 0,0 273.91036260090294,169.3853254107928 Z" fill="#E3F2FD" stroke="#888" stroke-width="0.5"/>
<path d="M 338.581929876693,142.59748514523653 A 149.99999999999997,149.99999999999997 0 0,1 338.581929876693,257.40251485476347 L 306.24614623879796,244.00859472198533 A 114.99999999999999,114.99999999999999 0 0,0 306.24614623879796,155.99140527801467 Z" fill="#E91E63" stroke="#888" stroke-width="0.5"/>
<path id="slice-4-arc-0" d="M 264.67156727579004,173.21215973444373 A 70.0,70.0 0 0,1 264.67156727579004,226.78784026555627" fill="none"/>
<text font-size="8" fill="green"><textPath href="#slice-4-arc-0" startOffset="50%" text-anchor="middle">Option E+</textPath></text>
<path id="slice-4-arc-1" d="M 297.00735091368506,159.8182396016656 A 104.99999999999999,104.99999999999999 0 0,1 297.00735091368506,240.1817603983344" fill="none"/>
<text font-size="10" fill="black"><textPath href="#slice-4-arc-1" startOffset="50%" text-anchor="middle">Option E</textPath></text>
<path id="slice-4-arc-2" d="M 329.3431345515801,146.42431946888743 A 139.99999999999997,139.99999999999997 0 0,1 329.3431345515801,253.57568053111257" fill="none"/>
<text font-size="14" fill="red"><textPath href="#slice-4-arc-2" startOffset="50%" text-anchor="middle">Option E-</textPath></text>
<line x1="200" y1="200" x2="338.58192987669304" y2="142.59748514523653" stroke="#888" stroke-width="1"/>
<line x1="200" y1="200" x2="338.58192987669304" y2="257.40251485476347" stroke="#888" stroke-width="1"/>
<path class="clickable-slice" data-slice="4" d="M 200,200 L 338.58192987669304,142.59748514523653 A 150,150 0 0,1 338.58192987669304,257.40251485476347 Z" fill="transparent" stroke="transparent"/>
</g>
<g class="slice-component" data-slice="5" transform="rotate(225.0 200 200)">
<path d="M 273.91036260090294,169.3853254107928 A 80.0,80.0 0 0,1 273.91036260090294,230.6146745892072 L 241.5745789630079,217.22075445642903 A 45.0,45.0 0 0,0 241.5745789630079,182.77924554357097 Z" fill="#4CAF50" stroke="#888" stroke-width="0.5"/>
<path d="M 306.24614623879796,155.99140527801467 A 114.99999999999999,114.99999999999999 0 0,1 306.24614623879796,244.00859472198533 L 273.91036260090294,230.6146745892072 A 80.0,80.0 0 0,0 273.91036260090294,169.3853254107928 Z" fill="#E3F2FD" stroke="#888" stroke-width="0.5"/>
<path d="M 338.581929876693,142.59748514523653 A 149.99999999999997,149.99999999999997 0 0,1 338.581929876693,257.40251485476347 L 306.24614623879796,244.00859472198533 A 114.99999999999999,114.99999999999999 0 0,0 306.24614623879796,155.99140527801467 Z" fill="#E91E63" stroke="#888" stroke-width="0.5"/>
<path id="slice-5-arc-0" d="M 264.67156727579004,173.21215973444373 A 70.0,70.0 0 0,1 264.67156727579004,226.78784026555627" fill="none"/>
<text font-size="8" fill="green"><textPath href="#slice-5-arc-0" startOffset="50%" text-anchor="middle">Option F+</textPath></text>
<path id="slice-5-arc-1" d="M 297.00735091368506,159.8182396016656 A 104.99999999999999,104.99999999999999 0 0,1 297.00735091368506,240.1817603983344" fill="none"/>
<text font-size="10" fill="black"><textPath href="#slice-5-arc-1" startOffset="50%" text-anchor="middle">Option F</textPath></text>
<path id="slice-5-arc-2" d="M 329.3431345515801,146.42431946888743 A 139.99999999999997,139.99999999999997 0 0,1 329.3431345515801,253.57568053111257" fill="none"/>
<text font-size="14" fill="red"><textPath href="#slice-5-arc-2" startOffset="50%" text-anchor="middle">Option F-</textPath></text>
<line x1="200" y1="200" x2="338.58192987669304" y2="142.59748514523653" stroke="#888" stroke-width="1"/>
<line x1="200" y1="200" x2="338.58192987669304" y2="257.40251485476347" stroke="#888" stroke-width="1"/>
<path class="clickable-slice" data-slice="5" d="M 200,200 L 338.58192987669304,142.59748514523653 A 150,150 0 0,1 338.58192987669304,257.40251485476347 Z" fill="transparent" stroke="transparent"/>
</g>
<g class="slice-component" data-slice="6" transform="rotate(270.0 200 200)">
<path d="M 273.91036260090294,169.3853254107928 A 80.0,80.0 0 0,1 273.91036260090294,230.6146745892072 L 241.5745789630079,217.22075445642903 A 45.0,45.0 0 0,0 241.5745789630079,182.77924554357097 Z" fill="#4CAF50" stroke="#888" stroke-width="0.5"/>
<path d="M 306.24614623879796,155.99140527801467 A 114.99999999999999,114.99999999999999 0 0,1 306.24614623879796,244.00859472198533 L 273.91036260090294,230.6146745892072 A 80.0,80.0 0 0,0 273.91036260090294,169.3853254107928 Z" fill="#E3F2FD" stroke="#888" stroke-width="0.5"/>
<path d="M 338.581929876693,142.59748514523653 A 149.99999999999997,149.99999999999997 0 0,1 338.581929876693,257.40251485476347 L 306.24614623879796,244.00859472198533 A 114.99999999999999,114.99999999999999 0 0,0 306.24614623879796,155.99140527801467 Z" fill="#E91E63" stroke="#888" stroke-width="0.5"/>
<path id="slice-6-arc-0" d="M 264.67156727579004,173.21215973444373 A 70.0,70.0 0 0,1 264.67156727579004,226.78784026555627" fill="none"/>
<text font-size="8" fill="green"><textPath href="#slice-6-arc-0" startOffset="50%" text-anchor="middle">Option G+</textPath></text>
<path id="slice-6-arc-1" d="M 297.00735091368506,159.8182396016656 A 104.99999999999999,104.99999999999999 0 0,1 297.00735091368506,240.1817603983344" fill="none"/>
<text font-size="10" fill="black"><textPath href="#slice-6-arc-1" startOffset="50%" text-anchor="middle">Option G</textPath></text>
<path id="slice-6-arc-2" d="M 329.3431345515801,146.42431946888743 A 139.99999999999997,139.99999999999997 0 0,1 329.3431345515801,253.57568053111257" fill="none"/>
<text font-size="14" fill="red"><textPath href="#slice-6-arc-2" startOffset="50%" text-anchor="middle">Option G-</textPath></text>
<line x1="200" y1="200" x2="338.58192987669304" y2="142.59748514523653" stroke="#888" stroke-width="1"/>
<line x1="200" y1="200" x2="338.58192987669304" y2="257.40251485476347" stroke="#888" stroke-width="1"/>
<path class="clickable-slice" data-slice="6" d="M 200,200 L 338.58192987669304,142.59748514523653 A 150,150 0 0,1 338.58192987669304,257.40251485476347 Z" fill="transparent" stroke="transparent"/>
</g>
<g class="slice-component" data-slice="7" transform="rotate(315.0 200 200)">
<path d="M 273.91036260090294,169.3853254107928 A 80.0,80.0 0 0,1 273.91036260090294,230.6146745892072 L 241.5745789630079,217.22075445642903 A 45.0,45.0 0 0,0 241.5745789630079,182.77924554357097 Z" fill="#4CAF50" stroke="#888" stroke-width="0.5"/>
<path d="M 306.24614623879796,155.99140527801467 A 114.99999999999999,114.99999999999999 0 0,1 306.24614623879796,244.00859472198533 L 273.91036260090294,230.6146745892072 A 80.0,80.0 0 0,0 273.91036260090294,169.3853254107928 Z" fill="#E3F2FD" stroke="#888" stroke-width="0.5"/>
<path d="M 338.581929876693,142.59748514523653 A 149.99999999999997,149.99999999999997 0 0,1 338.581929876693,257.40251485476347 L 306.24614623879796,244.00859472198533 A 114.99999999999999,114.99999999999999 0 0,0 306.24614623879796,155.99140527801467 Z" fill="#E91E63" stroke="#888" stroke-width="0.5"/>
<path id="slice-7-arc-0" d="M 264.67156727579004,173.21215973444373 A 70.0,70.0 0 0,1 264.67156727579004,226.78784026555627" fill="none"/>
<text font-size="8" fill="green"><textPath href="#slice-7-arc-0" startOffset="50%" text-anchor="middle">Option H+</textPath></text>
<path id="slice-7-arc-1" d="M 297.00735091368506,159.8182396016656 A 104.99999999999999,104.99999999999999 0 0,1 297.00735091368506,240.1817603983344" fill="none"/>
<text font-size="10" fill="black"><textPath href="#slice-7-arc-1" startOffset="50%" text-anchor="middle">Option H</textPath></text>
<path id="slice-7-arc-2" d="M 329.3431345515801,146.42431946888743 A 139.99999999999997,139.99999999999997 0 0,1 329.3431345515801,253.57568053111257" fill="none"/>
<text font-size="14" fill="red"><textPath href="#slice-7-arc-2" startOffset="50%" text-anchor="middle">Option H-</textPath></text>
<line x1="200" y1="200" x2="338.58192987669304" y2="142.59748514523653" stroke="#888" stroke-width="1"/>
<line x1="200" y1="200" x2="338.58192987669304" y2="257.40251485476347" stroke="#888" stroke-width="1"/>
<path class="clickable-slice" data-slice="7" d="M 200,200 L 338.58192987669304,142.59748514523653 A 150,150 0 0,1 338.58192987669304,257.40251485476347 Z" fill="transparent" stroke="transparent"/>
</g>
</g>
<circle cx="200" cy="200" r="30.0" fill="#FFC107"/>
<text x="200" y="200" font-size="16" font-weight="bold" text-anchor="middle" alignment-baseline="middle">Core</text>
</g>
</svg>